<?xml version="1.0" encoding="UTF-8"?>
<svg id="_레이어_2" data-name="레이어 2" xmlns="http://www.w3.org/2000/svg" viewBox="0 0 372.45 65.19">
  <defs>
    <style>
      .cls-1 {
        fill: #231815;
      }
    </style>
  </defs>
  <g id="Layer_1" data-name="Layer 1">
    <path d="M29.44,20.24s6.92-2.89,16.05,2.09c0,0-.43,2.69-1.14,4.7-.35,1-2.17,2.48-1.17,4.63,.38,.82,1.88,3.12,4.87,.97,0,0,.52-1.31,.41-3.47-.04-.67-.02-2.3,.81-2.96,.83-.67,6.96,3.88,7.61,13.08,.08,1.16,1.31,11.46-8.65,18.43-1.64,1.15-5.32,3.82-15.6,3.58,0,0-1.49-1.76-5.63-3.1-.34-.11-2.39-1.8-2.47-3.98-.03-.99-2.25-2.99-2.72-.17l-.32,4.19s-11.77-6.34-10.57-18.8c.19-1.99,.28-6.64,4.1-10.46,0,0,2.33,3.17,5.17,2.02,.35-.14,1.15-2.01,.06-4.07l-2.58-1.38s4.68-4.22,7.5-3.89c0,0,1.53,1.33,2.19,3.16,0,0,1.75,1.87,3.69,.78,1.08-.6,1.08-3.42-1.61-5.36ZM4.88,11.33c4.15-2.16,3.4-3.79,3.4-3.79-1.66-1.16-3.06-.05-5.73,.78-5.81,1.81,.05,6.04,.56,6.53,9.25,9.01,9.06,11.42,9.06,11.42-4.57,4.4-5.07,10.99-5.28,12.68-.28,2.19,.33,4.15,.33,4.15,2.17,13.11,11.3,17.75,12.48,18.31,4.36,2.06,4.9,1.43,4.9,1.43,3.49,2.16,4.42,.84,4.42,.84,7.09,3.65,16.73-.45,16.73-.45,10.61-3.7,14.51-14.8,14.51-14.8,3.65-18.09-9.37-27.66-9.37-27.66C55.21,5.34,61.29,3.33,61.29,3.33c-.5-1.16-2.03-2.2-2.03-2.2-6.64,1.16-12.31,17.62-12.31,17.62-9.46-5.81-19-1.91-19-1.91-5.81-11.78,.19-14.82,.19-14.82-.83-2.66-2.82-1.92-2.82-1.92-7.3,2-1.79,17.93-1.79,17.93-4.31-.17-8.01,4.66-8.01,4.66-2.15-2.87-10.64-11.36-10.64-11.36Z"/>
    <path d="M37.78,50.73c6.57-4.78,5.49-9.09,5.49-9.09-1.79-6.69-1.31-3.58-3.7-7.04-2.39-3.47-7.53-2.99-7.53-2.99-5.5,.6-7.89,5.98-7.89,5.98-1.55,1.67-.96,3.82-.96,3.82,.72,9.92,8.73,10.52,8.73,10.52,3.11,.12,5.87-1.19,5.87-1.19Z"/>
    <path class="cls-1" d="M94,8.35h-8.52s-8.27-.53-8.27,7.93v17.72h4.32v-9.81h12.47v-4.72h-12.47s-.05-1.71-.05-2.26c0-2.16,1.05-4.27,4.12-4.27h8.4v-4.6Z"/>
    <path class="cls-1" d="M231.63,8.35h-8.52s-8.28-.53-8.28,7.93v17.72h4.32v-9.81h12.47v-4.72h-12.47s-.05-1.71-.05-2.26c0-2.16,1.05-4.27,4.12-4.27h8.4v-4.6Z"/>
    <path class="cls-1" d="M316.8,8.35V26.83s-.23,3.52-4.86,3.54c-4.63-.02-4.86-3.54-4.86-3.54V8.35h-4.11V27.45c0,6.77,7.32,7.59,7.32,7.59l1.63,.05h.05l1.61-.05s7.33-.82,7.33-7.59V8.35h-4.1Z"/>
    <path class="cls-1" d="M110.9,8.35V26.83s-.23,3.52-4.86,3.54c-4.63-.02-4.86-3.54-4.86-3.54V8.35h-4.11V27.45c0,6.77,7.32,7.59,7.32,7.59l1.63,.05h.05l1.61-.05s7.33-.82,7.33-7.59V8.35h-4.1Z"/>
    <polygon class="cls-1" points="171.18 46.85 171.18 58.67 165.02 46.85 163.65 46.85 161.92 46.85 160.92 46.85 160.92 63.91 163.65 63.91 163.65 50.21 170.72 63.91 171.18 63.91 173.91 63.91 173.91 46.85 171.18 46.85"/>
    <polygon class="cls-1" points="89.34 63.91 82.72 55.2 88.15 46.88 84.9 46.88 79.72 54.67 79.72 46.93 76.99 46.93 76.99 63.91 79.72 63.91 79.72 55.69 85.63 63.91 89.34 63.91"/>
    <polygon class="cls-1" points="295.78 8.35 294.56 8.35 291.67 8.35 286.79 26.14 281.91 8.35 279.01 8.35 277.8 8.35 274.91 8.35 274.91 33.78 279.01 33.78 279.01 12.77 284.73 33.63 284.69 33.78 284.78 33.78 288.8 33.78 288.88 33.78 288.84 33.63 294.56 12.77 294.56 33.78 298.67 33.78 298.67 8.35 295.78 8.35"/>
    <path class="cls-1" d="M181.12,34h4.11l-8.51-25.65h-4.09l-8.51,25.65h4.11l2.2-6.64h8.49l2.2,6.64Zm-9.14-11.32l2.69-8.11,2.69,8.11h-5.39Z"/>
    <path class="cls-1" d="M143.3,63.91h2.73l-5.66-17.06h-2.72l-5.66,17.06h2.73l1.47-4.41h5.65l1.46,4.41Zm-6.08-7.53l1.79-5.39,1.79,5.39h-3.58Z"/>
    <rect class="cls-1" x="136.18" y="8.36" width="4.11" height="25.64"/>
    <rect class="cls-1" x="206.32" y="8.36" width="4.11" height="25.64"/>
    <rect class="cls-1" x="235.71" y="8.36" width="4.11" height="25.64"/>
    <path class="cls-1" d="M127.79,8.36v14.37s.78,6.66-5.55,6.66h-5.66v4.65h8.09s7.23-.05,7.23-7.98V8.36h-4.11Z"/>
    <path class="cls-1" d="M157.71,8.35h-13.08v25.65h4.11v-8.08h8.72c5.34,0,5.31-5.95,5.31-5.95v-4.67c0-6.96-5.05-6.96-5.05-6.96Zm.85,7.72v1.82c0,3.33-3.04,3.11-3.04,3.11h-6.78V12.95h6.48c3.7,0,3.35,3.12,3.35,3.12Z"/>
    <path class="cls-1" d="M203.4,8.35h-10.53s-6.27,.33-6.27,8.63v8.67s-.6,8.35,6.75,8.35h10.04v-4.95h-9.8s-2.86,.21-2.86-3.82v-8.38s-.17-3.77,2.86-3.77h9.8v-4.74Z"/>
    <path class="cls-1" d="M260.05,8.35h-10.53s-6.27,.33-6.27,8.63v8.67s-.59,8.35,6.75,8.35h10.04v-4.95h-9.8s-2.86,.21-2.86-3.82v-8.38s-.17-3.77,2.86-3.77h9.8v-4.74Z"/>
    <rect class="cls-1" x="348.12" y="8.36" width="4.11" height="25.64"/>
    <rect class="cls-1" x="155.29" y="46.86" width="2.73" height="17.05"/>
    <path class="cls-1" d="M372.45,8.35h-10.52s-6.27,.33-6.27,8.63v8.67s-.59,8.35,6.76,8.35h10.04v-4.95h-9.79s-2.86,.21-2.86-3.82v-8.38s-.17-3.77,2.86-3.77h9.79v-4.74Z"/>
    <path class="cls-1" d="M187.03,46.85h-7s-4.17,.22-4.17,5.74v5.77s-.39,5.56,4.49,5.56h6.67v-3.29h-6.51s-1.9,.14-1.9-2.54v-5.57s-.11-2.5,1.9-2.5h6.51v-3.15Z"/>
    <path class="cls-1" d="M343.58,8.3v4.79h-12.5s-2.78-.09-2.78,2.97v.83s0,2.55,2.78,2.55h8.99s3.56-.05,3.56,3.96v6.62s-.23,3.93-3.92,3.93h-14.86v-4.92h13.04s1.5-.16,1.5-2.13v-1.16s.32-1.61-1.64-1.61h-8.4s-5.34,.27-5.34-5.35v-4.58s-.08-5.84,5.34-5.84h2.19l12.05-.05Z"/>
    <path class="cls-1" d="M96.35,46.32c-3.63,0-6.57,3.35-6.57,7.49v3.12c0,4.14,2.94,7.49,6.57,7.49s6.57-3.35,6.57-7.49v-3.12c0-4.14-2.94-7.49-6.57-7.49Zm3.56,11.07c0,2.16-1.6,3.92-3.56,3.92s-3.56-1.75-3.56-3.92v-3.98c0-2.16,1.6-3.92,3.56-3.92s3.56,1.75,3.56,3.92v3.98Z"/>
    <path class="cls-1" d="M117.98,63.86l-3.18-6.8c1.88-.95,1.82-3.49,1.82-3.49v-2.96c0-4.02-3.95-3.77-3.95-3.77h-7.64v17.01h2.73v-6.42h4.34l3.01,6.42h2.87Zm-10.22-14.1h4.82c1.67,0,1.64,1.18,1.64,1.18v2.15c0,1.21-1.46,1.35-1.46,1.35h-5v-4.67Z"/>
    <path class="cls-1" d="M122.56,51.98s-.06-2.01,1.82-2.01h6.6v-3.12h-6.72s-.16-.01-.41,0h-.17c-1.28,.14-4.28,1.01-4.28,6.51v4.88s.33,5.28,4.28,5.59h0s.17,.01,.17,.01c.06,0,.13,.02,.19,.02h.76v-.02h6.17v-3.12h-6.17s-2.25-.03-2.25-3.56v-.8h8.42v-3.11h-8.42v-1.28Z"/>
    <rect class="cls-1" x="188.93" y="60.62" width="1.82" height="3.29"/>
  </g>
</svg>