<?xml version="1.0" encoding="UTF-8"?>
<svg id="_레이어_2" data-name="레이어 2" xmlns="http://www.w3.org/2000/svg" viewBox="0 0 547.53 65.19">
  <defs>
    <style>
      .cls-1 {
        fill: #231815;
      }
    </style>
  </defs>
  <g id="Layer_1" data-name="Layer 1">
    <path d="M29.44,20.24s6.92-2.89,16.05,2.09c0,0-.43,2.69-1.14,4.7-.35,1-2.17,2.48-1.17,4.63,.38,.82,1.88,3.12,4.87,.97,0,0,.52-1.31,.41-3.47-.04-.67-.02-2.3,.81-2.96,.83-.67,6.96,3.88,7.61,13.08,.08,1.16,1.31,11.46-8.65,18.43-1.64,1.15-5.32,3.82-15.6,3.58,0,0-1.49-1.76-5.63-3.1-.34-.11-2.39-1.8-2.47-3.98-.03-.99-2.25-2.99-2.72-.17l-.32,4.19s-11.77-6.34-10.57-18.8c.19-1.99,.28-6.64,4.1-10.46,0,0,2.33,3.17,5.17,2.02,.35-.14,1.15-2.01,.06-4.07l-2.58-1.38s4.68-4.22,7.5-3.89c0,0,1.53,1.33,2.19,3.16,0,0,1.75,1.87,3.69,.78,1.08-.6,1.08-3.42-1.61-5.36ZM4.88,11.33c4.15-2.16,3.4-3.79,3.4-3.79-1.66-1.16-3.06-.05-5.73,.78-5.81,1.81,.05,6.04,.56,6.53,9.25,9.01,9.06,11.42,9.06,11.42-4.57,4.4-5.07,10.99-5.28,12.68-.28,2.19,.33,4.15,.33,4.15,2.17,13.11,11.3,17.75,12.48,18.31,4.36,2.06,4.9,1.43,4.9,1.43,3.49,2.16,4.42,.84,4.42,.84,7.09,3.65,16.73-.45,16.73-.45,10.61-3.7,14.51-14.8,14.51-14.8,3.65-18.09-9.37-27.66-9.37-27.66C55.21,5.34,61.29,3.33,61.29,3.33c-.5-1.16-2.03-2.2-2.03-2.2-6.64,1.16-12.31,17.62-12.31,17.62-9.46-5.81-19-1.91-19-1.91-5.81-11.78,.19-14.82,.19-14.82-.83-2.66-2.82-1.92-2.82-1.92-7.3,2-1.79,17.93-1.79,17.93-4.31-.17-8.01,4.66-8.01,4.66-2.15-2.87-10.64-11.36-10.64-11.36Z"/>
    <path d="M37.78,50.73c6.57-4.78,5.49-9.09,5.49-9.09-1.79-6.69-1.31-3.58-3.7-7.04-2.39-3.47-7.53-2.99-7.53-2.99-5.5,.6-7.89,5.98-7.89,5.98-1.55,1.67-.96,3.82-.96,3.82,.72,9.92,8.73,10.52,8.73,10.52,3.11,.12,5.87-1.19,5.87-1.19Z"/>
    <path class="cls-1" d="M83.38,27.22h-8.52s-8.27-.53-8.27,7.93v17.72h4.32v-9.81h12.47v-4.72h-12.47s-.05-1.71-.05-2.26c0-2.16,1.05-4.27,4.12-4.27h8.4v-4.6Z"/>
    <path class="cls-1" d="M221.01,27.22h-8.52s-8.28-.53-8.28,7.93v17.72h4.32v-9.81h12.47v-4.72h-12.47s-.05-1.71-.05-2.26c0-2.16,1.05-4.27,4.12-4.27h8.4v-4.6Z"/>
    <path class="cls-1" d="M306.18,27.22v18.48s-.23,3.52-4.86,3.54c-4.63-.02-4.86-3.54-4.86-3.54V27.22h-4.11v19.1c0,6.77,7.32,7.59,7.32,7.59l1.63,.05h.05l1.61-.05s7.33-.82,7.33-7.59V27.22h-4.1Z"/>
    <path class="cls-1" d="M100.28,27.22v18.48s-.23,3.52-4.86,3.54c-4.63-.02-4.86-3.54-4.86-3.54V27.22h-4.11v19.1c0,6.77,7.32,7.59,7.32,7.59l1.63,.05h.05l1.61-.05s7.33-.82,7.33-7.59V27.22h-4.1Z"/>
    <polygon class="cls-1" points="518.09 27.22 518.09 44.99 508.83 27.22 506.78 27.22 504.18 27.22 502.67 27.22 502.67 52.86 506.78 52.86 506.78 32.26 517.41 52.86 518.09 52.86 522.2 52.86 522.2 27.22 518.09 27.22"/>
    <polygon class="cls-1" points="395.02 52.87 385.07 39.76 393.24 27.25 388.35 27.25 380.56 38.97 380.56 27.33 376.45 27.33 376.45 52.87 380.56 52.87 380.56 40.5 389.44 52.87 395.02 52.87"/>
    <polygon class="cls-1" points="285.16 27.22 283.94 27.22 281.05 27.22 276.17 45.01 271.29 27.22 268.39 27.22 267.18 27.22 264.29 27.22 264.29 52.65 268.39 52.65 268.39 31.64 274.11 52.5 274.07 52.65 274.16 52.65 278.18 52.65 278.26 52.65 278.22 52.5 283.94 31.64 283.94 52.65 288.05 52.65 288.05 27.22 285.16 27.22"/>
    <path class="cls-1" d="M170.5,52.87h4.11l-8.51-25.65h-4.09l-8.51,25.65h4.11l2.2-6.64h8.49l2.2,6.64Zm-9.14-11.32l2.69-8.11,2.69,8.11h-5.39Z"/>
    <path class="cls-1" d="M476.17,52.87h4.11l-8.52-25.65h-4.08l-8.52,25.65h4.11l2.21-6.64h8.49l2.2,6.64Zm-9.14-11.32l2.69-8.11,2.69,8.11h-5.38Z"/>
    <rect class="cls-1" x="125.56" y="27.23" width="4.11" height="25.64"/>
    <rect class="cls-1" x="195.7" y="27.23" width="4.11" height="25.64"/>
    <rect class="cls-1" x="225.09" y="27.23" width="4.11" height="25.64"/>
    <path class="cls-1" d="M117.17,27.23v14.37s.78,6.66-5.55,6.66h-5.66v4.65h8.09s7.23-.05,7.23-7.98V27.23h-4.11Z"/>
    <path class="cls-1" d="M147.09,27.22h-13.08v25.65h4.11v-8.08h8.72c5.34,0,5.31-5.95,5.31-5.95v-4.67c0-6.96-5.05-6.96-5.05-6.96Zm.85,7.72v1.82c0,3.33-3.04,3.11-3.04,3.11h-6.78v-8.05h6.48c3.7,0,3.35,3.12,3.35,3.12Z"/>
    <path class="cls-1" d="M192.78,27.22h-10.53s-6.27,.33-6.27,8.63v8.67s-.6,8.35,6.75,8.35h10.04v-4.95h-9.8s-2.86,.21-2.86-3.82v-8.38s-.17-3.77,2.86-3.77h9.8v-4.74Z"/>
    <path class="cls-1" d="M249.43,27.22h-10.53s-6.27,.33-6.27,8.63v8.67s-.59,8.35,6.75,8.35h10.04v-4.95h-9.8s-2.86,.21-2.86-3.82v-8.38s-.17-3.77,2.86-3.77h9.8v-4.74Z"/>
    <rect class="cls-1" x="337.5" y="27.23" width="4.11" height="25.64"/>
    <rect class="cls-1" x="494.2" y="27.23" width="4.11" height="25.64"/>
    <path class="cls-1" d="M361.83,27.22h-10.52s-6.27,.33-6.27,8.63v8.67s-.59,8.35,6.76,8.35h10.04v-4.95h-9.79s-2.86,.21-2.86-3.82v-8.38s-.17-3.77,2.86-3.77h9.79v-4.74Z"/>
    <path class="cls-1" d="M541.93,27.22h-10.52s-6.27,.33-6.27,8.63v8.67s-.59,8.35,6.75,8.35h10.04v-4.95h-9.79s-2.86,.21-2.86-3.82v-8.38s-.17-3.77,2.86-3.77h9.79v-4.74Z"/>
    <path class="cls-1" d="M332.96,27.17v4.79h-12.5s-2.78-.09-2.78,2.97v.83s0,2.55,2.78,2.55h8.99s3.56-.05,3.56,3.96v6.62s-.23,3.93-3.92,3.93h-14.86v-4.92h13.04s1.5-.16,1.5-2.13v-1.16s.32-1.61-1.64-1.61h-8.4s-5.34,.27-5.34-5.35v-4.58s-.08-5.84,5.34-5.84h2.19l12.05-.05Z"/>
    <path class="cls-1" d="M405.56,26.42c-5.46,0-9.87,5.04-9.87,11.27v4.69c0,6.22,4.42,11.27,9.87,11.27s9.88-5.04,9.88-11.27v-4.69c0-6.22-4.42-11.27-9.88-11.27Zm5.36,16.65c0,3.25-2.4,5.89-5.36,5.89s-5.36-2.63-5.36-5.89v-5.99c0-3.25,2.4-5.89,5.36-5.89s5.36,2.64,5.36,5.89v5.99Z"/>
    <path class="cls-1" d="M438.1,52.79l-4.79-10.22c2.83-1.43,2.73-5.25,2.73-5.25v-4.44c0-6.04-5.93-5.66-5.93-5.66h-11.49v25.57h4.11v-9.65h6.52l4.52,9.65h4.32Zm-15.37-21.21h7.25c2.51,0,2.46,1.77,2.46,1.77v3.23c0,1.82-2.19,2.03-2.19,2.03h-7.52v-7.03Z"/>
    <path class="cls-1" d="M444.99,34.92s-.09-3.02,2.74-3.02h9.92v-4.68h-10.1s-.23-.02-.62,0h-.25v.02c-1.93,.19-6.43,1.49-6.43,9.76v7.34s.49,7.94,6.43,8.41v.02h.26c.1,0,.19,.02,.29,.02h1.14v-.02h9.28v-4.69h-9.28s-3.38-.05-3.38-5.36v-1.2h12.66v-4.68h-12.66v-1.93Z"/>
    <rect class="cls-1" x="544.79" y="47.92" width="2.74" height="4.95"/>
  </g>
</svg>