<?xml version="1.0" encoding="UTF-8"?>
<svg id="_레이어_2" data-name="레이어 2" xmlns="http://www.w3.org/2000/svg" viewBox="0 0 136.29 144.97">
  <path d="M65.47,45s15.39-6.42,35.7,4.66c0,0-.96,5.98-2.53,10.44-.78,2.23-4.82,5.51-2.6,10.3,.85,1.83,4.18,6.95,10.82,2.15,0,0,1.17-2.91,.9-7.72-.08-1.5-.04-5.11,1.8-6.58,1.85-1.48,15.48,8.62,16.92,29.09,.18,2.58,2.91,25.47-19.23,40.98-3.66,2.56-11.82,8.49-34.7,7.96,0,0-3.32-3.91-12.53-6.9-.76-.25-5.32-3.99-5.49-8.84-.07-2.2-5-6.66-6.05-.38l-.71,9.33s-26.17-14.09-23.5-41.81c.43-4.43,.63-14.77,9.12-23.26,0,0,5.19,7.04,11.5,4.5,.78-.31,2.55-4.47,.13-9.05l-5.74-3.06s10.4-9.38,16.67-8.64c0,0,3.4,2.96,4.87,7.02,0,0,3.9,4.16,8.22,1.73,2.4-1.33,2.4-7.61-3.59-11.93ZM10.85,25.2c9.23-4.8,7.56-8.43,7.56-8.43-3.69-2.59-6.8-.11-12.74,1.73-12.93,4.02,.12,13.43,1.25,14.52,20.56,20.04,20.15,25.4,20.15,25.4-10.16,9.79-11.27,24.45-11.75,28.19-.63,4.88,.74,9.23,.74,9.23,4.82,29.16,25.13,39.47,27.74,40.72,9.7,4.58,10.9,3.18,10.9,3.18,7.75,4.8,9.83,1.86,9.83,1.86,15.77,8.11,37.21-1,37.21-1,23.59-8.22,32.26-32.9,32.26-32.9,8.12-40.23-20.84-61.5-20.84-61.5,9.6-34.33,23.12-38.8,23.12-38.8-1.1-2.59-4.52-4.9-4.52-4.9-14.76,2.58-27.37,39.18-27.37,39.18-21.04-12.92-42.25-4.26-42.25-4.26-12.92-26.2,.42-32.95,.42-32.95C60.72-1.44,56.3,.21,56.3,.21c-16.24,4.44-3.99,39.87-3.99,39.87-9.59-.37-17.81,10.37-17.81,10.37-4.78-6.39-23.65-25.25-23.65-25.25Z"/>
  <path d="M84,112.82c14.61-10.63,12.2-20.21,12.2-20.21-3.99-14.88-2.92-7.96-8.24-15.67-5.31-7.71-16.74-6.65-16.74-6.65-12.22,1.33-17.54,13.29-17.54,13.29-3.45,3.72-2.13,8.49-2.13,8.49,1.6,22.07,19.4,23.39,19.4,23.39,6.91,.27,13.05-2.66,13.05-2.66Z"/>
</svg>